<svg width="18" height="11" viewBox="0 0 18 11" fill="none" xmlns="http://www.w3.org/2000/svg">
<path d="M9.28645 10.85C3.46112 10.85 0.138445 6.77718 0 0H2.91799C3.01383 4.97427 5.16505 7.08128 6.86899 7.51572V0H9.61658V4.29004C11.2992 4.10541 13.0671 2.15045 13.6634 0H16.411C16.1863 1.11528 15.7383 2.17128 15.0951 3.10194C14.452 4.0326 13.6274 4.81789 12.673 5.40871C13.7383 5.94856 14.6793 6.71266 15.4337 7.6506C16.1882 8.58854 16.7391 9.679 17.05 10.85H14.0255C13.7464 9.8329 13.1792 8.92243 12.3949 8.23269C11.6106 7.54295 10.6441 7.10464 9.61658 6.97267V10.85H9.28645V10.85Z" fill="white"/>
</svg>
