<svg width="17" height="17" viewBox="0 0 17 17" fill="none" xmlns="http://www.w3.org/2000/svg">
<path d="M13.8933 2.37344C12.3622 0.847656 10.3207 0 8.16585 0C3.68597 0 0.0567065 3.61667 0.0567065 8.08099C0.0567065 9.49375 0.453659 10.9065 1.13415 12.0932L0 16.275L4.30976 15.1448C5.50061 15.7664 6.80488 16.1055 8.16585 16.1055C12.6457 16.1055 16.275 12.4888 16.275 8.02448C16.2183 5.93359 15.4244 3.89922 13.8933 2.37344ZM12.0787 10.963C11.9085 11.4151 11.1146 11.8672 10.7177 11.9237C10.3774 11.9802 9.92378 11.9802 9.47012 11.8672C9.18659 11.7542 8.78963 11.6411 8.33598 11.4151C6.29451 10.5674 4.99025 8.53307 4.87683 8.36354C4.76342 8.25052 4.02622 7.28984 4.02622 6.27266C4.02622 5.25547 4.53658 4.80338 4.70671 4.57734C4.87683 4.3513 5.10366 4.3513 5.27378 4.3513C5.38719 4.3513 5.55731 4.3513 5.67073 4.3513C5.78414 4.3513 5.95427 4.29479 6.12439 4.69036C6.29451 5.08594 6.69146 6.10312 6.74817 6.15964C6.80488 6.27266 6.80488 6.38568 6.74817 6.4987C6.69146 6.61172 6.63475 6.72474 6.52134 6.83776C6.40792 6.95078 6.29451 7.12031 6.2378 7.17682C6.12439 7.28984 6.01098 7.40286 6.12439 7.57239C6.2378 7.79844 6.63476 8.42005 7.25854 8.98516C8.05244 9.66328 8.67622 9.88932 8.90305 10.0023C9.12988 10.1154 9.24329 10.0589 9.35671 9.94583C9.47012 9.83281 9.86707 9.38073 9.98049 9.15469C10.0939 8.92865 10.264 8.98516 10.4341 9.04167C10.6043 9.09818 11.625 9.60677 11.7951 9.71979C12.022 9.83281 12.1354 9.88932 12.1921 9.94583C12.2488 10.1154 12.2488 10.5109 12.0787 10.963Z" fill="white"/>
</svg>
