<svg width="93" height="26" viewBox="0 0 93 26" fill="none" xmlns="http://www.w3.org/2000/svg">
<g clip-path="url(#clip0_rbk)">
<path fill-rule="evenodd" clip-rule="evenodd" d="M0.454102 0.521484V24.0016L23.3968 0.521484H0.454102Z" fill="#92CFAE"/>
<path fill-rule="evenodd" clip-rule="evenodd" d="M2.09277 25.6789H25.0355V2.19873L2.09277 25.6789Z" fill="#2A8288"/>
<path fill-rule="evenodd" clip-rule="evenodd" d="M37.9228 12.5548C40.5904 12.5548 42.0085 11.2179 42.0085 8.71987V8.57877C42.0085 5.90486 40.5227 4.84935 37.9228 4.84935H35.1539V12.5548H37.9228ZM29.7178 0.521484H38.0578C43.933 0.521484 47.2758 3.23056 47.2758 8.54395V8.68431C47.2758 13.9973 43.7307 16.5309 38.2265 16.5309H35.1539V25.6788H29.7178V0.521484Z" fill="white"/>
<path fill-rule="evenodd" clip-rule="evenodd" d="M58.0974 21.3509C60.7145 21.3509 62.0397 20.1547 62.0397 17.8674V17.7271C62.0397 15.475 60.7145 14.2436 57.9649 14.2436H54.9168V21.3509H58.0974ZM58.2961 25.6788H49.6162V0.521484H65.0542V4.95493H54.9503L54.9168 10.2323H58.4616C63.9278 10.2323 67.1746 12.7307 67.1746 17.7619V17.903C67.1746 22.8286 64.1601 25.6788 58.2961 25.6788Z" fill="white"/>
<path fill-rule="evenodd" clip-rule="evenodd" d="M71.126 0.556617H76.8339V11.3786L85.6421 0.521484H91.7026L81.7316 12.4326L92.1961 25.6788H85.5364L76.8339 14.4001V25.6788H71.126V0.556617Z" fill="white"/>
</g>
<defs>
<clipPath id="clip0_rbk">
<rect width="93" height="26" fill="white"/>
</clipPath>
</defs>
</svg>
