<svg width="34" height="34" viewBox="0 0 34 34" fill="none" xmlns="http://www.w3.org/2000/svg">
<g clip-path="url(#clip0_review_2gis)">
<mask id="mask0_review_2gis" style="mask-type:luminance" maskUnits="userSpaceOnUse" x="0" y="0" width="36" height="35">
<path fill-rule="evenodd" clip-rule="evenodd" d="M8.69909 0.0159084L10.1967 0L25.7738 0.00636419C26.0103 0.0084854 26.1577 0.011666 26.3041 0.0159084C27.0762 0.03606 27.8558 0.080606 28.6194 0.217424C29.3843 0.346487 30.126 0.588097 30.8202 0.934394C31.5117 1.28227 32.1459 1.73621 32.6942 2.2803C33.2428 2.82181 33.7021 3.44683 34.055 4.13212C34.4156 4.82894 34.6415 5.54273 34.7805 6.30848C34.9183 7.06364 34.9639 7.83364 34.9841 8.59727C34.9947 8.94727 34.9989 9.29727 35 9.64833L35.0021 10.273V24.1001C35.0021 24.5159 35.0021 24.9327 35 25.3495C34.9979 25.6995 34.9947 26.0495 34.9841 26.3995C34.9629 27.1632 34.9183 27.9342 34.7805 28.6883C34.6496 29.4462 34.405 30.1799 34.055 30.8647C33.7019 31.5502 33.2427 32.1755 32.6942 32.7176C32.1438 33.2615 31.5114 33.7156 30.8202 34.0635C30.126 34.4098 29.3844 34.6514 28.6194 34.7805C27.8558 34.9162 27.0762 34.9608 26.3041 34.982L23.9771 35L9.22833 34.9915C9.05189 34.9896 8.87547 34.9861 8.69909 34.9809C7.92697 34.9618 7.14742 34.9162 6.38379 34.7805C5.61918 34.6514 4.87791 34.4098 4.18409 34.0635C2.79528 33.3645 1.66249 32.2451 0.947121 30.8647C0.597629 30.1797 0.353079 29.446 0.221666 28.6883C0.0837875 27.9342 0.0392421 27.1632 0.0190905 26.4006C0.00848448 26.0506 0.00530331 25.6995 0.00318209 25.3495L0 24.7227V10.8977C0 10.482 2.75093e-07 10.0652 0.00318209 9.64939C0.00530331 9.29939 0.00954508 8.94939 0.0190905 8.59833C0.0403027 7.8347 0.0848481 7.0647 0.221666 6.30954C0.353001 5.55182 0.597555 4.81816 0.947121 4.13318C1.66144 2.75236 2.79406 1.63274 4.18303 0.934394C4.8772 0.588083 5.61883 0.346472 6.38379 0.217424C7.14742 0.0816666 7.92697 0.0371206 8.69909 0.0159084Z" fill="white"/>
</mask>
<g mask="url(#mask0_review_2gis)">
<path d="M-23.333 -19.0981H96.336V100.571H-23.333V-19.0981Z" fill="#19AA1E"/>
<path fill-rule="evenodd" clip-rule="evenodd" d="M-23.333 -19.0981H96.336V20.1642L-23.333 1.46855V-19.0981Z" fill="#FFB919"/>
<path fill-rule="evenodd" clip-rule="evenodd" d="M-23.333 -0.895508L18.4386 5.6313C23.6382 2.33889 29.8242 0.533141 36.4997 0.533141C45.746 0.533141 54.0568 3.99597 60.105 10.0732C60.8664 10.8419 61.5844 11.6432 62.2624 12.4772L96.336 17.8002V22.5321L65.7216 17.7458C68.0129 22.1261 69.2133 26.9946 69.2207 31.938C69.2207 38.3487 67.7885 44.7414 64.8224 51.1594L64.7354 51.3552L63.4735 54.053H60.5002C54.3505 54.053 50.2749 55.8913 47.6061 59.1511C45.5139 61.7074 44.3028 65.1594 43.8967 68.9232L43.8822 69.0392L43.8242 69.6412L43.7988 69.9022L43.7481 70.4135C43.5921 72.0959 43.4906 73.521 43.4362 74.6813L96.336 66.414V71.1459L-23.333 89.8452V85.1133L29.6248 76.8388L29.603 75.7763L29.5958 75.479L29.5885 75.3231L29.5813 75.0874C29.5341 73.8002 29.4145 72.1503 29.2259 70.1488L29.1897 69.7681L29.1244 69.1118C28.7473 65.3262 27.5543 61.8344 25.4621 59.2381C22.826 55.9566 18.7903 54.0892 12.6877 54.053H9.52584L8.26761 51.3552C5.24353 44.8719 3.77862 38.414 3.77862 31.938C3.77862 23.794 7.08191 15.9183 12.898 10.0732L13.4057 9.57639L-23.333 3.8328V-0.895508Z" fill="white"/>
<path fill-rule="evenodd" clip-rule="evenodd" d="M36.4993 5.20654C53.2079 5.20654 64.5464 18.0644 64.5464 31.9374C64.5464 37.507 63.3317 43.3013 60.4962 49.3785C44.0595 49.3785 40.002 61.1485 39.2333 68.5601L39.1825 69.0496C38.9251 71.6966 38.7728 73.8178 38.7329 75.4132L34.2802 76.1094V75.9644C34.2182 73.6079 34.0585 71.255 33.8015 68.9118L33.7907 68.7813C33.08 61.3878 29.1095 49.3785 12.506 49.3785C9.66686 43.3013 8.45215 37.507 8.45215 31.9374C8.45215 18.0644 19.7943 5.20654 36.4993 5.20654Z" fill="#0073FA"/>
</g>
</g>
<defs>
<clipPath id="clip0_review_2gis">
<rect width="34" height="34" rx="17" fill="white"/>
</clipPath>
</defs>
</svg>
