<svg width="34" height="34" viewBox="0 0 34 34" fill="none" xmlns="http://www.w3.org/2000/svg">
<g clip-path="url(#clip0_review_yandex)">
<path d="M-0.429688 17C-0.429688 7.33475 7.40331 -0.5 17.0703 -0.5C26.7338 -0.5 34.5703 7.33475 34.5703 17C34.5703 26.6652 26.7338 34.5 17.0703 34.5C7.40331 34.5 -0.429688 26.6652 -0.429688 17Z" fill="#FC3F1D"/>
<path d="M19.3099 9.41548H17.6929C14.7284 9.41548 13.1692 10.917 13.1692 13.1307C13.1692 15.6332 14.2472 16.8057 16.4609 18.309L18.2897 19.541L13.0344 27.3932H9.10742L13.8237 20.3687C11.1112 18.4245 9.58867 16.5362 9.58867 13.3425C9.58867 9.33848 12.3799 6.60498 17.6737 6.60498H22.9289V27.374H19.3099V9.41548Z" fill="white"/>
</g>
<defs>
<clipPath id="clip0_review_yandex">
<rect width="34" height="34" rx="17" fill="white"/>
</clipPath>
</defs>
</svg>
